<?xml version="1.0" encoding="utf-8"?>
<!-- Generator: Adobe Illustrator 16.2.1, SVG Export Plug-In . SVG Version: 6.00 Build 0)  -->
<!DOCTYPE svg PUBLIC "-//W3C//DTD SVG 1.1//EN" "http://www.w3.org/Graphics/SVG/1.1/DTD/svg11.dtd">
<svg version="1.1" id="Layer_1" xmlns="http://www.w3.org/2000/svg" xmlns:xlink="http://www.w3.org/1999/xlink" x="0px" y="0px"
	 width="191.83px" height="191.794px" viewBox="0 0 191.83 191.794" enable-background="new 0 0 191.83 191.794"
	 xml:space="preserve">
<g>
	<g>
		<g>
			<path fill="#51A601" d="M0,95.896C0,42.931,42.932,0,95.893,0c52.971,0,95.901,42.931,95.901,95.896
				s-42.931,95.897-95.901,95.897C42.932,191.794,0,148.862,0,95.896"/>
			<path fill="#4D4D4F" d="M37.349,171.798c7.461-44.914,46.57-79.284,93.576-79.284c22.415,0,43.03,7.834,59.285,20.882
				c1.044-5.679,1.62-11.521,1.62-17.499c0-4.12-0.286-8.179-0.797-12.165c-17.682-10.297-38.215-16.226-60.108-16.226
				c-53.153,0-98.305,34.781-113.979,82.769C22.6,158.464,29.483,165.726,37.349,171.798"/>
			<path fill="#FFFFFF" d="M42.728,42.896c0-7.96,6.454-14.408,14.412-14.408c7.956,0,14.41,6.448,14.41,14.408"/>
		</g>
		
			<line fill="none" stroke="#FFFFFF" stroke-width="12.2132" stroke-linecap="round" stroke-linejoin="round" x1="127.855" y1="17.834" x2="75.748" y2="17.834"/>
		<path fill="#FFFFFF" d="M174.167,151.837l-1.412-1.035c0,0-9.374-5.27-14.647-19.332c-5.27-14.061-0.58-28.126,2.354-38.674
			c2.92-10.548,1.159-24.704-8.086-29.813c-6.406-3.537-12.111-2.305-12.111-2.305l0.028-0.07
			c-2.597-5.525-14.602-6.529-18.036-1.032h-0.173c-0.643-4.223-5.857-8.319-11.314-8.896c-8.233-0.869-14.69,7.073-16.966,11.942
			l-3.567,12.021c7.972-3.043,15.593-4.549,15.593-4.549l-4.873,37.361l-7.042-12.832c-3.96-8.592-12.565-9.445-21.363-4.76
			c0,0,15.823,34.573,19.348,42.78c3.51,8.201,11.712,11.129,18.745,11.129c7.599,0,16.334,2.533,18.169,14.652l5.042,25.639
			C149.913,177.062,164.256,166.028,174.167,151.837"/>
	</g>
</g>
</svg>
